<?xml version="1.0" encoding="UTF-8" standalone="no"?>
<!DOCTYPE svg PUBLIC "-//W3C//DTD SVG 1.1//EN"
 "http://www.w3.org/Graphics/SVG/1.1/DTD/svg11.dtd">
<!-- Generated by graphviz version 2.44.1 (20200629.0846)
 -->
<!-- Pages: 1 -->
<svg width="1010pt" height="954pt"
 viewBox="0.00 0.00 1009.50 954.00" xmlns="http://www.w3.org/2000/svg" xmlns:xlink="http://www.w3.org/1999/xlink">
<g id="graph0" class="graph" transform="scale(1 1) rotate(0) translate(4 950)">
<polygon fill="white" stroke="transparent" points="-4,4 -4,-950 1005.5,-950 1005.5,4 -4,4"/>
<g id="clust1" class="cluster">
<title>cluster_around&#45;clj&#45;load&#45;hook&#45;after</title>
<polygon fill="none" stroke="black" points="8,-8 8,-243 610,-243 610,-8 8,-8"/>
<text text-anchor="middle" x="309" y="-227.8" font-family="Times,serif" font-size="14.00">around&#45;clj&#45;load&#45;hook (after)</text>
</g>
<!-- clj&#45;repl&#45;require -->
<g id="node1" class="node">
<title>clj&#45;repl&#45;require</title>
<polygon fill="none" stroke="aquamarine" points="597.5,-946 402.5,-946 402.5,-910 597.5,-910 597.5,-946"/>
<text text-anchor="middle" x="500" y="-924.3" font-family="Times,serif" font-size="14.00">user=&gt; (require &#39;my&#45;namespace)</text>
</g>
<!-- around&#45;clj&#45;load&#45;hook (before) -->
<g id="node5" class="node">
<title>around&#45;clj&#45;load&#45;hook (before)</title>
<polygon fill="none" stroke="black" points="681.5,-873 502.5,-873 502.5,-837 681.5,-837 681.5,-873"/>
<text text-anchor="middle" x="592" y="-851.3" font-family="Times,serif" font-size="14.00">around&#45;clj&#45;load&#45;hook (before)</text>
</g>
<!-- clj&#45;repl&#45;require&#45;&gt;around&#45;clj&#45;load&#45;hook (before) -->
<g id="edge1" class="edge">
<title>clj&#45;repl&#45;require&#45;&gt;around&#45;clj&#45;load&#45;hook (before)</title>
<path fill="none" stroke="aquamarine" d="M522.27,-909.81C534.14,-900.66 548.9,-889.26 561.79,-879.32"/>
<polygon fill="aquamarine" stroke="aquamarine" points="564.16,-881.91 569.93,-873.03 559.88,-876.37 564.16,-881.91"/>
</g>
<!-- java&#45;jar -->
<g id="node2" class="node">
<title>java&#45;jar</title>
<polygon fill="none" stroke="aquamarine" points="752,-946 616,-946 616,-910 752,-910 752,-946"/>
<text text-anchor="middle" x="684" y="-924.3" font-family="Times,serif" font-size="14.00">$ java &#45;jar my&#45;app.jar</text>
</g>
<!-- java&#45;jar&#45;&gt;around&#45;clj&#45;load&#45;hook (before) -->
<g id="edge2" class="edge">
<title>java&#45;jar&#45;&gt;around&#45;clj&#45;load&#45;hook (before)</title>
<path fill="none" stroke="aquamarine" d="M661.73,-909.81C649.86,-900.66 635.1,-889.26 622.21,-879.32"/>
<polygon fill="aquamarine" stroke="aquamarine" points="624.12,-876.37 614.07,-873.03 619.84,-881.91 624.12,-876.37"/>
</g>
<!-- tests&#45;from&#45;clj&#45;repl -->
<g id="node3" class="node">
<title>tests&#45;from&#45;clj&#45;repl</title>
<polygon fill="none" stroke="lightpink" points="744.5,-786 637.5,-786 637.5,-750 744.5,-750 744.5,-786"/>
<text text-anchor="middle" x="691" y="-764.3" font-family="Times,serif" font-size="14.00">user=&gt; (tests ...)</text>
</g>
<!-- eval -->
<g id="node7" class="node">
<title>eval</title>
<polygon fill="none" stroke="black" points="718,-713 664,-713 664,-677 718,-677 718,-713"/>
<text text-anchor="middle" x="691" y="-691.3" font-family="Times,serif" font-size="14.00">eval</text>
</g>
<!-- tests&#45;from&#45;clj&#45;repl&#45;&gt;eval -->
<g id="edge5" class="edge">
<title>tests&#45;from&#45;clj&#45;repl&#45;&gt;eval</title>
<path fill="none" stroke="lightpink" d="M691,-749.81C691,-741.79 691,-732.05 691,-723.07"/>
<polygon fill="lightpink" stroke="lightpink" points="694.5,-723.03 691,-713.03 687.5,-723.03 694.5,-723.03"/>
</g>
<!-- tests&#45;from&#45;cider -->
<g id="node4" class="node">
<title>tests&#45;from&#45;cider</title>
<polygon fill="none" stroke="lightpink" points="1001.5,-786 762.5,-786 762.5,-750 1001.5,-750 1001.5,-786"/>
<text text-anchor="middle" x="882" y="-764.3" font-family="Times,serif" font-size="14.00">M&#45;x cider&#45;eval&#45;sexp&#45;at&#45;point on (tests...)</text>
</g>
<!-- tests&#45;from&#45;cider&#45;&gt;eval -->
<g id="edge6" class="edge">
<title>tests&#45;from&#45;cider&#45;&gt;eval</title>
<path fill="none" stroke="lightpink" d="M836.25,-749.99C802.99,-737.63 758.56,-721.11 727.63,-709.62"/>
<polygon fill="lightpink" stroke="lightpink" points="728.69,-706.28 718.09,-706.07 726.25,-712.84 728.69,-706.28"/>
</g>
<!-- load -->
<g id="node6" class="node">
<title>load</title>
<polygon fill="none" stroke="black" points="619,-786 565,-786 565,-750 619,-750 619,-786"/>
<text text-anchor="middle" x="592" y="-764.3" font-family="Times,serif" font-size="14.00">load</text>
</g>
<!-- around&#45;clj&#45;load&#45;hook (before)&#45;&gt;load -->
<g id="edge3" class="edge">
<title>around&#45;clj&#45;load&#45;hook (before)&#45;&gt;load</title>
<path fill="none" stroke="aquamarine" d="M592,-836.8C592,-825.16 592,-809.55 592,-796.24"/>
<polygon fill="aquamarine" stroke="aquamarine" points="595.5,-796.18 592,-786.18 588.5,-796.18 595.5,-796.18"/>
<text text-anchor="middle" x="666" y="-807.8" font-family="Times,serif" font-size="14.00">*currently&#45;loading* := true</text>
</g>
<!-- load&#45;&gt;eval -->
<g id="edge4" class="edge">
<title>load&#45;&gt;eval</title>
<path fill="none" stroke="aquamarine" d="M615.71,-749.99C628.6,-740.75 644.72,-729.19 658.73,-719.14"/>
<polygon fill="aquamarine" stroke="aquamarine" points="661.05,-721.79 667.14,-713.11 656.97,-716.1 661.05,-721.79"/>
</g>
<!-- macroexpanding (tests...) -->
<g id="node8" class="node">
<title>macroexpanding (tests...)</title>
<polygon fill="none" stroke="black" points="768.5,-640 613.5,-640 613.5,-604 768.5,-604 768.5,-640"/>
<text text-anchor="middle" x="691" y="-618.3" font-family="Times,serif" font-size="14.00">macroexpanding (tests...)</text>
</g>
<!-- eval&#45;&gt;macroexpanding (tests...) -->
<g id="edge7" class="edge">
<title>eval&#45;&gt;macroexpanding (tests...)</title>
<path fill="none" stroke="aquamarine" d="M685.12,-676.81C684.28,-668.79 684.05,-659.05 684.42,-650.07"/>
<polygon fill="aquamarine" stroke="aquamarine" points="687.92,-650.25 685.14,-640.03 680.94,-649.75 687.92,-650.25"/>
</g>
<!-- eval&#45;&gt;macroexpanding (tests...) -->
<g id="edge8" class="edge">
<title>eval&#45;&gt;macroexpanding (tests...)</title>
<path fill="none" stroke="lightpink" d="M696.88,-676.81C697.72,-668.79 697.95,-659.05 697.58,-650.07"/>
<polygon fill="lightpink" stroke="lightpink" points="701.06,-649.75 696.86,-640.03 694.08,-650.25 701.06,-649.75"/>
</g>
<!-- (load&#45;tests?) -->
<g id="node9" class="node">
<title>(load&#45;tests?)</title>
<polygon fill="none" stroke="black" points="732.5,-567 649.5,-567 649.5,-531 732.5,-531 732.5,-567"/>
<text text-anchor="middle" x="691" y="-545.3" font-family="Times,serif" font-size="14.00">(load&#45;tests?)</text>
</g>
<!-- macroexpanding (tests...)&#45;&gt;(load&#45;tests?) -->
<g id="edge9" class="edge">
<title>macroexpanding (tests...)&#45;&gt;(load&#45;tests?)</title>
<path fill="none" stroke="aquamarine" d="M685.12,-603.81C684.28,-595.79 684.05,-586.05 684.42,-577.07"/>
<polygon fill="aquamarine" stroke="aquamarine" points="687.92,-577.25 685.14,-567.03 680.94,-576.75 687.92,-577.25"/>
</g>
<!-- macroexpanding (tests...)&#45;&gt;(load&#45;tests?) -->
<g id="edge10" class="edge">
<title>macroexpanding (tests...)&#45;&gt;(load&#45;tests?)</title>
<path fill="none" stroke="lightpink" d="M696.88,-603.81C697.72,-595.79 697.95,-586.05 697.58,-577.07"/>
<polygon fill="lightpink" stroke="lightpink" points="701.06,-576.75 696.86,-567.03 694.08,-577.25 701.06,-576.75"/>
</g>
<!-- macroexpands to ... -->
<g id="node10" class="node">
<title>macroexpands to ...</title>
<polygon fill="none" stroke="black" points="681.5,-480 556.5,-480 556.5,-444 681.5,-444 681.5,-480"/>
<text text-anchor="middle" x="619" y="-458.3" font-family="Times,serif" font-size="14.00">macroexpands to ...</text>
</g>
<!-- (load&#45;tests?)&#45;&gt;macroexpands to ... -->
<g id="edge11" class="edge">
<title>(load&#45;tests?)&#45;&gt;macroexpands to ...</title>
<path fill="none" stroke="aquamarine" d="M649.27,-534.2C639.51,-529.04 630.17,-522.13 624,-513 619.52,-506.37 617.6,-498.06 617,-490.14"/>
<polygon fill="aquamarine" stroke="aquamarine" points="620.5,-490.06 616.84,-480.11 613.5,-490.17 620.5,-490.06"/>
<text text-anchor="middle" x="635" y="-501.8" font-family="Times,serif" font-size="14.00">true</text>
</g>
<!-- (load&#45;tests?)&#45;&gt;macroexpands to ... -->
<g id="edge12" class="edge">
<title>(load&#45;tests?)&#45;&gt;macroexpands to ...</title>
<path fill="none" stroke="lightpink" d="M676.43,-530.8C665.99,-518.47 651.76,-501.68 640.08,-487.89"/>
<polygon fill="lightpink" stroke="lightpink" points="642.68,-485.54 633.55,-480.18 637.34,-490.07 642.68,-485.54"/>
<text text-anchor="middle" x="670" y="-501.8" font-family="Times,serif" font-size="14.00">true</text>
</g>
<!-- macroexpands to nil -->
<g id="node11" class="node">
<title>macroexpands to nil</title>
<polygon fill="none" stroke="black" points="828,-480 700,-480 700,-444 828,-444 828,-480"/>
<text text-anchor="middle" x="764" y="-458.3" font-family="Times,serif" font-size="14.00">macroexpands to nil</text>
</g>
<!-- (load&#45;tests?)&#45;&gt;macroexpands to nil -->
<g id="edge13" class="edge">
<title>(load&#45;tests?)&#45;&gt;macroexpands to nil</title>
<path fill="none" stroke="aquamarine" d="M696.87,-530.55C700.88,-520.33 706.95,-507.58 715,-498 718.53,-493.8 722.68,-489.85 727.03,-486.22"/>
<polygon fill="aquamarine" stroke="aquamarine" points="729.24,-488.94 735.02,-480.06 724.96,-483.4 729.24,-488.94"/>
<text text-anchor="middle" x="728" y="-501.8" font-family="Times,serif" font-size="14.00">false</text>
</g>
<!-- (load&#45;tests?)&#45;&gt;macroexpands to nil -->
<g id="edge14" class="edge">
<title>(load&#45;tests?)&#45;&gt;macroexpands to nil</title>
<path fill="none" stroke="lightpink" d="M720.92,-530.9C728.13,-525.8 735.36,-519.75 741,-513 746.75,-506.12 751.37,-497.56 754.92,-489.48"/>
<polygon fill="lightpink" stroke="lightpink" points="758.25,-490.6 758.73,-480.01 751.75,-487.99 758.25,-490.6"/>
<text text-anchor="middle" x="763" y="-501.8" font-family="Times,serif" font-size="14.00">false</text>
</g>
<!-- *currently&#45;loading* -->
<g id="node12" class="node">
<title>*currently&#45;loading*</title>
<polygon fill="none" stroke="black" points="681,-407 557,-407 557,-371 681,-371 681,-407"/>
<text text-anchor="middle" x="619" y="-385.3" font-family="Times,serif" font-size="14.00">*currently&#45;loading*</text>
</g>
<!-- macroexpands to ...&#45;&gt;*currently&#45;loading* -->
<g id="edge15" class="edge">
<title>macroexpands to ...&#45;&gt;*currently&#45;loading*</title>
<path fill="none" stroke="aquamarine" d="M613.12,-443.81C612.28,-435.79 612.05,-426.05 612.42,-417.07"/>
<polygon fill="aquamarine" stroke="aquamarine" points="615.92,-417.25 613.14,-407.03 608.94,-416.75 615.92,-417.25"/>
</g>
<!-- macroexpands to ...&#45;&gt;*currently&#45;loading* -->
<g id="edge16" class="edge">
<title>macroexpands to ...&#45;&gt;*currently&#45;loading*</title>
<path fill="none" stroke="lightpink" d="M624.88,-443.81C625.72,-435.79 625.95,-426.05 625.58,-417.07"/>
<polygon fill="lightpink" stroke="lightpink" points="629.06,-416.75 624.86,-407.03 622.08,-417.25 629.06,-416.75"/>
</g>
<!-- (process&#45;after&#45;load!) -->
<g id="node13" class="node">
<title>(process&#45;after&#45;load!)</title>
<polygon fill="none" stroke="black" points="626,-320 498,-320 498,-284 626,-284 626,-320"/>
<text text-anchor="middle" x="562" y="-298.3" font-family="Times,serif" font-size="14.00">(process&#45;after&#45;load!)</text>
</g>
<!-- *currently&#45;loading*&#45;&gt;(process&#45;after&#45;load!) -->
<g id="edge17" class="edge">
<title>*currently&#45;loading*&#45;&gt;(process&#45;after&#45;load!)</title>
<path fill="none" stroke="aquamarine" d="M607.47,-370.8C599.35,-358.7 588.36,-342.3 579.21,-328.67"/>
<polygon fill="aquamarine" stroke="aquamarine" points="581.99,-326.53 573.52,-320.18 576.18,-330.43 581.99,-326.53"/>
<text text-anchor="middle" x="604" y="-341.8" font-family="Times,serif" font-size="14.00">true</text>
</g>
<!-- (when...) -->
<g id="node14" class="node">
<title>(when...)</title>
<polygon fill="none" stroke="black" points="760,-320 694,-320 694,-284 760,-284 760,-320"/>
<text text-anchor="middle" x="727" y="-298.3" font-family="Times,serif" font-size="14.00">(when...)</text>
</g>
<!-- *currently&#45;loading*&#45;&gt;(when...) -->
<g id="edge18" class="edge">
<title>*currently&#45;loading*&#45;&gt;(when...)</title>
<path fill="none" stroke="lightpink" d="M640.86,-370.8C656.96,-358.13 679.06,-340.73 696.84,-326.74"/>
<polygon fill="lightpink" stroke="lightpink" points="699.48,-329.11 705.18,-320.18 695.15,-323.61 699.48,-329.11"/>
<text text-anchor="middle" x="692" y="-341.8" font-family="Times,serif" font-size="14.00">false</text>
</g>
<!-- (process&#45;tests&#45;on&#45;load&#45;now!) -->
<g id="node17" class="node">
<title>(process&#45;tests&#45;on&#45;load&#45;now!)</title>
<polygon fill="none" stroke="black" points="571.5,-212 398.5,-212 398.5,-176 571.5,-176 571.5,-212"/>
<text text-anchor="middle" x="485" y="-190.3" font-family="Times,serif" font-size="14.00">(process&#45;tests&#45;on&#45;load&#45;now!)</text>
</g>
<!-- (process&#45;after&#45;load!)&#45;&gt;(process&#45;tests&#45;on&#45;load&#45;now!) -->
<g id="edge21" class="edge">
<title>(process&#45;after&#45;load!)&#45;&gt;(process&#45;tests&#45;on&#45;load&#45;now!)</title>
<path fill="none" stroke="aquamarine" d="M549.63,-283.97C537.19,-266.84 517.85,-240.22 503.57,-220.56"/>
<polygon fill="aquamarine" stroke="aquamarine" points="506.31,-218.37 497.6,-212.34 500.64,-222.49 506.31,-218.37"/>
<text text-anchor="middle" x="617.5" y="-254.8" font-family="Times,serif" font-size="14.00">... and so on until load has run</text>
</g>
<!-- run&#45;block! -->
<g id="node15" class="node">
<title>run&#45;block!</title>
<polygon fill="none" stroke="black" points="836,-212 618,-212 618,-176 836,-176 836,-212"/>
<text text-anchor="middle" x="727" y="-190.3" font-family="Times,serif" font-size="14.00">(run&#45;execute&#45;report! :block ns block)</text>
</g>
<!-- (when...)&#45;&gt;run&#45;block! -->
<g id="edge20" class="edge">
<title>(when...)&#45;&gt;run&#45;block!</title>
<path fill="none" stroke="lightpink" d="M727,-283.97C727,-267.38 727,-241.88 727,-222.43"/>
<polygon fill="lightpink" stroke="lightpink" points="730.5,-222.34 727,-212.34 723.5,-222.34 730.5,-222.34"/>
<text text-anchor="middle" x="766" y="-254.8" font-family="Times,serif" font-size="14.00">(:run (config))</text>
</g>
<!-- (store&#45;tests!) -->
<g id="node16" class="node">
<title>(store&#45;tests!)</title>
<polygon fill="none" stroke="black" points="939.5,-212 854.5,-212 854.5,-176 939.5,-176 939.5,-212"/>
<text text-anchor="middle" x="897" y="-190.3" font-family="Times,serif" font-size="14.00">(store&#45;tests!)</text>
</g>
<!-- (when...)&#45;&gt;(store&#45;tests!) -->
<g id="edge19" class="edge">
<title>(when...)&#45;&gt;(store&#45;tests!)</title>
<path fill="none" stroke="lightpink" d="M760.05,-288.94C784.89,-278.92 818.97,-263.08 845,-243 854.39,-235.76 864.08,-227.16 872.52,-219.26"/>
<polygon fill="lightpink" stroke="lightpink" points="875.05,-221.68 879.87,-212.25 870.22,-216.61 875.05,-221.68"/>
<text text-anchor="middle" x="876" y="-254.8" font-family="Times,serif" font-size="14.00">(:store (config))</text>
</g>
<!-- when2 -->
<g id="node18" class="node">
<title>when2</title>
<polygon fill="none" stroke="black" points="492,-139 422,-139 422,-103 492,-103 492,-139"/>
<text text-anchor="middle" x="457" y="-117.3" font-family="Times,serif" font-size="14.00">(when ...)</text>
</g>
<!-- (process&#45;tests&#45;on&#45;load&#45;now!)&#45;&gt;when2 -->
<g id="edge22" class="edge">
<title>(process&#45;tests&#45;on&#45;load&#45;now!)&#45;&gt;when2</title>
<path fill="none" stroke="aquamarine" d="M478.22,-175.81C474.99,-167.62 471.05,-157.62 467.44,-148.48"/>
<polygon fill="aquamarine" stroke="aquamarine" points="470.64,-147.05 463.72,-139.03 464.13,-149.62 470.64,-147.05"/>
</g>
<!-- run&#45;suite! -->
<g id="node19" class="node">
<title>run&#45;suite!</title>
<polygon fill="none" stroke="black" points="294,-52 16,-52 16,-16 294,-16 294,-52"/>
<text text-anchor="middle" x="155" y="-30.3" font-family="Times,serif" font-size="14.00">(run&#45;execute&#45;report! :suite @*tests&#45;to&#45;process*)</text>
</g>
<!-- when2&#45;&gt;run&#45;suite! -->
<g id="edge24" class="edge">
<title>when2&#45;&gt;run&#45;suite!</title>
<path fill="none" stroke="aquamarine" d="M421.77,-110.08C373.77,-96.57 286.76,-72.08 225.18,-54.75"/>
<polygon fill="aquamarine" stroke="aquamarine" points="226.1,-51.38 215.53,-52.04 224.2,-58.11 226.1,-51.38"/>
<text text-anchor="middle" x="363" y="-73.8" font-family="Times,serif" font-size="14.00">(:run (config))</text>
</g>
<!-- (run! #(apply store&#45;tests! %) @*tests&#45;to&#45;process*) -->
<g id="node20" class="node">
<title>(run! #(apply store&#45;tests! %) @*tests&#45;to&#45;process*)</title>
<polygon fill="none" stroke="black" points="602,-52 312,-52 312,-16 602,-16 602,-52"/>
<text text-anchor="middle" x="457" y="-30.3" font-family="Times,serif" font-size="14.00">(run! #(apply store&#45;tests! %) @*tests&#45;to&#45;process*)</text>
</g>
<!-- when2&#45;&gt;(run! #(apply store&#45;tests! %) @*tests&#45;to&#45;process*) -->
<g id="edge23" class="edge">
<title>when2&#45;&gt;(run! #(apply store&#45;tests! %) @*tests&#45;to&#45;process*)</title>
<path fill="none" stroke="aquamarine" d="M457,-102.8C457,-91.16 457,-75.55 457,-62.24"/>
<polygon fill="aquamarine" stroke="aquamarine" points="460.5,-62.18 457,-52.18 453.5,-62.18 460.5,-62.18"/>
<text text-anchor="middle" x="500" y="-73.8" font-family="Times,serif" font-size="14.00">(:store (config))</text>
</g>
</g>
</svg>
