<?xml version="1.0" encoding="UTF-8" standalone="no"?>
<!DOCTYPE svg PUBLIC "-//W3C//DTD SVG 1.1//EN"
 "http://www.w3.org/Graphics/SVG/1.1/DTD/svg11.dtd">
<!-- Generated by graphviz version 2.44.1 (20200629.0846)
 -->
<!-- Pages: 1 -->
<svg width="956pt" height="1916pt"
 viewBox="0.00 0.00 956.00 1916.00" xmlns="http://www.w3.org/2000/svg" xmlns:xlink="http://www.w3.org/1999/xlink">
<g id="graph0" class="graph" transform="scale(1 1) rotate(0) translate(4 1912)">
<polygon fill="white" stroke="transparent" points="-4,4 -4,-1912 952,-1912 952,4 -4,4"/>
<g id="clust1" class="cluster">
<title>cluster_via_load</title>
<polygon fill="none" stroke="black" points="531,-1825 531,-1900 897,-1900 897,-1825 531,-1825"/>
<text text-anchor="middle" x="714" y="-1884.8" font-family="Times,serif" font-size="14.00">Code whose evaluation is handled by clojure.core/load</text>
</g>
<g id="clust2" class="cluster">
<title>cluster_via_eval</title>
<polygon fill="none" stroke="black" points="251,-1418 251,-1493 632,-1493 632,-1418 251,-1418"/>
<text text-anchor="middle" x="441.5" y="-1477.8" font-family="Times,serif" font-size="14.00">Code directly evaluated with eval</text>
</g>
<g id="clust3" class="cluster">
<title>cluster_around&#45;clj&#45;load&#45;hook&#45;before</title>
<polygon fill="none" stroke="black" points="640,-1418 640,-1806 902,-1806 902,-1418 640,-1418"/>
<text text-anchor="middle" x="771" y="-1790.8" font-family="Times,serif" font-size="14.00">around&#45;clj&#45;load&#45;hook (before)</text>
</g>
<g id="clust4" class="cluster">
<title>cluster_around&#45;clj&#45;load&#45;hook&#45;after</title>
<polygon fill="none" stroke="black" points="8,-757 8,-919 610,-919 610,-757 8,-757"/>
<text text-anchor="middle" x="309" y="-903.8" font-family="Times,serif" font-size="14.00">around&#45;clj&#45;load&#45;hook (after)</text>
</g>
<g id="clust6" class="cluster">
<title>cluster_run&#45;execute&#45;report</title>
<polygon fill="none" stroke="black" points="437,-225 437,-738 599,-738 599,-225 437,-225"/>
<text text-anchor="middle" x="518" y="-722.8" font-family="Times,serif" font-size="14.00">run&#45;execute&#45;report!</text>
</g>
<!-- clj&#45;repl&#45;require -->
<g id="node1" class="node">
<title>clj&#45;repl&#45;require</title>
<polygon fill="none" stroke="aquamarine" points="734.5,-1869 539.5,-1869 539.5,-1833 734.5,-1833 734.5,-1869"/>
<text text-anchor="middle" x="637" y="-1847.3" font-family="Times,serif" font-size="14.00">user=&gt; (require &#39;my&#45;namespace)</text>
</g>
<!-- currently&#45;loading! -->
<g id="node5" class="node">
<title>currently&#45;loading!</title>
<polygon fill="none" stroke="black" points="891,-1775 669,-1775 669,-1739 891,-1739 891,-1775"/>
<text text-anchor="middle" x="780" y="-1753.3" font-family="Times,serif" font-size="14.00">(binding [*currently&#45;loading* true] ...</text>
</g>
<!-- clj&#45;repl&#45;require&#45;&gt;currently&#45;loading! -->
<g id="edge1" class="edge">
<title>clj&#45;repl&#45;require&#45;&gt;currently&#45;loading!</title>
<path fill="none" stroke="aquamarine" d="M663.56,-1832.91C686.39,-1818.22 719.51,-1796.92 744.59,-1780.78"/>
<polygon fill="aquamarine" stroke="aquamarine" points="746.58,-1783.66 753.09,-1775.31 742.79,-1777.78 746.58,-1783.66"/>
</g>
<!-- java&#45;jar -->
<g id="node2" class="node">
<title>java&#45;jar</title>
<polygon fill="none" stroke="aquamarine" points="889,-1869 753,-1869 753,-1833 889,-1833 889,-1869"/>
<text text-anchor="middle" x="821" y="-1847.3" font-family="Times,serif" font-size="14.00">$ java &#45;jar my&#45;app.jar</text>
</g>
<!-- java&#45;jar&#45;&gt;currently&#45;loading! -->
<g id="edge2" class="edge">
<title>java&#45;jar&#45;&gt;currently&#45;loading!</title>
<path fill="none" stroke="aquamarine" d="M813.29,-1832.7C807.28,-1819.2 798.82,-1800.23 791.93,-1784.78"/>
<polygon fill="aquamarine" stroke="aquamarine" points="794.94,-1782.94 787.68,-1775.23 788.55,-1785.79 794.94,-1782.94"/>
</g>
<!-- tests&#45;from&#45;clj&#45;repl -->
<g id="node3" class="node">
<title>tests&#45;from&#45;clj&#45;repl</title>
<polygon fill="none" stroke="lightpink" points="623.5,-1462 516.5,-1462 516.5,-1426 623.5,-1426 623.5,-1462"/>
<text text-anchor="middle" x="570" y="-1440.3" font-family="Times,serif" font-size="14.00">user=&gt; (tests ...)</text>
</g>
<!-- eval -->
<g id="node11" class="node">
<title>eval</title>
<polygon fill="none" stroke="black" points="597,-1389 543,-1389 543,-1353 597,-1353 597,-1389"/>
<text text-anchor="middle" x="570" y="-1367.3" font-family="Times,serif" font-size="14.00">eval</text>
</g>
<!-- tests&#45;from&#45;clj&#45;repl&#45;&gt;eval -->
<g id="edge8" class="edge">
<title>tests&#45;from&#45;clj&#45;repl&#45;&gt;eval</title>
<path fill="none" stroke="lightpink" d="M570,-1425.81C570,-1417.79 570,-1408.05 570,-1399.07"/>
<polygon fill="lightpink" stroke="lightpink" points="573.5,-1399.03 570,-1389.03 566.5,-1399.03 573.5,-1399.03"/>
</g>
<!-- tests&#45;from&#45;cider -->
<g id="node4" class="node">
<title>tests&#45;from&#45;cider</title>
<polygon fill="none" stroke="lightpink" points="498.5,-1462 259.5,-1462 259.5,-1426 498.5,-1426 498.5,-1462"/>
<text text-anchor="middle" x="379" y="-1440.3" font-family="Times,serif" font-size="14.00">M&#45;x cider&#45;eval&#45;sexp&#45;at&#45;point on (tests...)</text>
</g>
<!-- tests&#45;from&#45;cider&#45;&gt;eval -->
<g id="edge9" class="edge">
<title>tests&#45;from&#45;cider&#45;&gt;eval</title>
<path fill="none" stroke="lightpink" d="M424.75,-1425.99C458.01,-1413.63 502.44,-1397.11 533.37,-1385.62"/>
<polygon fill="lightpink" stroke="lightpink" points="534.75,-1388.84 542.91,-1382.07 532.31,-1382.28 534.75,-1388.84"/>
</g>
<!-- currently&#45;loading? -->
<g id="node6" class="node">
<title>currently&#45;loading?</title>
<polygon fill="none" stroke="black" points="730,-1083 596,-1083 596,-1047 730,-1047 730,-1083"/>
<text text-anchor="middle" x="663" y="-1061.3" font-family="Times,serif" font-size="14.00">*currently&#45;loading* ?</text>
</g>
<!-- currently&#45;loading!&#45;&gt;currently&#45;loading? -->
<g id="edge29" class="edge">
<title>currently&#45;loading!&#45;&gt;currently&#45;loading?</title>
<path fill="none" stroke="orange" stroke-dasharray="5,2" d="M900.8,-1740.91C927.49,-1730.52 948,-1713.32 948,-1685 948,-1685 948,-1685 948,-1137 948,-1092.32 814.44,-1075.54 730.18,-1069.4"/>
<polygon fill="orange" stroke="orange" points="899.4,-1737.7 891.12,-1744.31 901.72,-1744.3 899.4,-1737.7"/>
</g>
<!-- setup&#45;*tests&#45;to&#45;process* -->
<g id="node7" class="node">
<title>setup&#45;*tests&#45;to&#45;process*</title>
<polygon fill="none" stroke="black" points="894,-1702 648,-1702 648,-1666 894,-1666 894,-1702"/>
<text text-anchor="middle" x="771" y="-1680.3" font-family="Times,serif" font-size="14.00">(binding [*tests&#45;to&#45;process* (atom nil)] ...</text>
</g>
<!-- currently&#45;loading!&#45;&gt;setup&#45;*tests&#45;to&#45;process* -->
<g id="edge3" class="edge">
<title>currently&#45;loading!&#45;&gt;setup&#45;*tests&#45;to&#45;process*</title>
<path fill="none" stroke="aquamarine" d="M777.82,-1738.81C776.8,-1730.79 775.57,-1721.05 774.43,-1712.07"/>
<polygon fill="aquamarine" stroke="aquamarine" points="777.89,-1711.51 773.16,-1702.03 770.94,-1712.39 777.89,-1711.51"/>
</g>
<!-- (process&#45;after&#45;load!) -->
<g id="node16" class="node">
<title>(process&#45;after&#45;load!)</title>
<polygon fill="none" stroke="black" points="566,-996 438,-996 438,-960 566,-960 566,-996"/>
<text text-anchor="middle" x="502" y="-974.3" font-family="Times,serif" font-size="14.00">(process&#45;after&#45;load!)</text>
</g>
<!-- currently&#45;loading?&#45;&gt;(process&#45;after&#45;load!) -->
<g id="edge20" class="edge">
<title>currently&#45;loading?&#45;&gt;(process&#45;after&#45;load!)</title>
<path fill="none" stroke="aquamarine" d="M630.42,-1046.8C605.24,-1033.51 570.23,-1015.02 543.12,-1000.71"/>
<polygon fill="aquamarine" stroke="aquamarine" points="544.73,-997.6 534.26,-996.03 541.47,-1003.79 544.73,-997.6"/>
<text text-anchor="middle" x="603" y="-1017.8" font-family="Times,serif" font-size="14.00">true</text>
</g>
<!-- (when...) -->
<g id="node17" class="node">
<title>(when...)</title>
<polygon fill="none" stroke="black" points="696,-996 630,-996 630,-960 696,-960 696,-996"/>
<text text-anchor="middle" x="663" y="-974.3" font-family="Times,serif" font-size="14.00">(when...)</text>
</g>
<!-- currently&#45;loading?&#45;&gt;(when...) -->
<g id="edge21" class="edge">
<title>currently&#45;loading?&#45;&gt;(when...)</title>
<path fill="none" stroke="lightpink" d="M663,-1046.8C663,-1035.16 663,-1019.55 663,-1006.24"/>
<polygon fill="lightpink" stroke="lightpink" points="666.5,-1006.18 663,-996.18 659.5,-1006.18 666.5,-1006.18"/>
<text text-anchor="middle" x="676" y="-1017.8" font-family="Times,serif" font-size="14.00">false</text>
</g>
<!-- clear&#45;*tests* -->
<g id="node8" class="node">
<title>clear&#45;*tests*</title>
<polygon fill="none" stroke="black" points="836.5,-1629 655.5,-1629 655.5,-1593 836.5,-1593 836.5,-1629"/>
<text text-anchor="middle" x="746" y="-1607.3" font-family="Times,serif" font-size="14.00">(apply clear&#45;tests! *tests* nss)</text>
</g>
<!-- setup&#45;*tests&#45;to&#45;process*&#45;&gt;clear&#45;*tests* -->
<g id="edge4" class="edge">
<title>setup&#45;*tests&#45;to&#45;process*&#45;&gt;clear&#45;*tests*</title>
<path fill="none" stroke="aquamarine" d="M764.95,-1665.81C762.06,-1657.62 758.54,-1647.62 755.33,-1638.48"/>
<polygon fill="aquamarine" stroke="aquamarine" points="758.62,-1637.3 752,-1629.03 752.02,-1639.62 758.62,-1637.3"/>
</g>
<!-- store&#45;*tests&#45;to&#45;process*! -->
<g id="node21" class="node">
<title>store&#45;*tests&#45;to&#45;process*!</title>
<polygon fill="none" stroke="black" points="602,-801 312,-801 312,-765 602,-765 602,-801"/>
<text text-anchor="middle" x="457" y="-779.3" font-family="Times,serif" font-size="14.00">(run! #(apply store&#45;tests! %) @*tests&#45;to&#45;process*)</text>
</g>
<!-- setup&#45;*tests&#45;to&#45;process*&#45;&gt;store&#45;*tests&#45;to&#45;process*! -->
<g id="edge27" class="edge">
<title>setup&#45;*tests&#45;to&#45;process*&#45;&gt;store&#45;*tests&#45;to&#45;process*!</title>
<path fill="none" stroke="orange" stroke-dasharray="5,2" d="M873.02,-1661.71C894.08,-1651.19 910,-1635.47 910,-1612 910,-1612 910,-1612 910,-869 910,-852.12 713.16,-820.56 578.99,-801.01"/>
<polygon fill="orange" stroke="orange" points="871.39,-1658.61 863.72,-1665.91 874.27,-1664.99 871.39,-1658.61"/>
</g>
<!-- run&#45;suite! -->
<g id="node22" class="node">
<title>run&#45;suite!</title>
<polygon fill="none" stroke="black" points="294,-801 16,-801 16,-765 294,-765 294,-801"/>
<text text-anchor="middle" x="155" y="-779.3" font-family="Times,serif" font-size="14.00">(run&#45;execute&#45;report! :suite @*tests&#45;to&#45;process*)</text>
</g>
<!-- setup&#45;*tests&#45;to&#45;process*&#45;&gt;run&#45;suite! -->
<g id="edge28" class="edge">
<title>setup&#45;*tests&#45;to&#45;process*&#45;&gt;run&#45;suite!</title>
<path fill="none" stroke="orange" stroke-dasharray="5,2" d="M637.68,-1680.68C456.55,-1675.71 155,-1660.21 155,-1612 155,-1612 155,-1612 155,-869 155,-845.54 155,-818.43 155,-801.26"/>
<polygon fill="orange" stroke="orange" points="637.73,-1684.18 647.82,-1680.95 637.92,-1677.18 637.73,-1684.18"/>
</g>
<!-- ensuring&#45;runner -->
<g id="node9" class="node">
<title>ensuring&#45;runner</title>
<polygon fill="none" stroke="black" points="881.5,-1556 648.5,-1556 648.5,-1520 881.5,-1520 881.5,-1556"/>
<text text-anchor="middle" x="765" y="-1534.3" font-family="Times,serif" font-size="14.00">(ensuring&#45;runner+executors+reporter ...</text>
</g>
<!-- clear&#45;*tests*&#45;&gt;ensuring&#45;runner -->
<g id="edge5" class="edge">
<title>clear&#45;*tests*&#45;&gt;ensuring&#45;runner</title>
<path fill="none" stroke="aquamarine" d="M750.6,-1592.81C752.77,-1584.7 755.41,-1574.84 757.83,-1565.78"/>
<polygon fill="aquamarine" stroke="aquamarine" points="761.24,-1566.59 760.44,-1556.03 754.48,-1564.78 761.24,-1566.59"/>
</g>
<!-- (store&#45;tests!) -->
<g id="node19" class="node">
<title>(store&#45;tests!)</title>
<polygon fill="none" stroke="black" points="703.5,-888 618.5,-888 618.5,-852 703.5,-852 703.5,-888"/>
<text text-anchor="middle" x="661" y="-866.3" font-family="Times,serif" font-size="14.00">(store&#45;tests!)</text>
</g>
<!-- clear&#45;*tests*&#45;&gt;(store&#45;tests!) -->
<g id="edge30" class="edge">
<title>clear&#45;*tests*&#45;&gt;(store&#45;tests!)</title>
<path fill="none" stroke="orange" stroke-dasharray="5,2" d="M645.26,-1606.09C495.35,-1598.91 231,-1580.38 231,-1539 231,-1539 231,-1539 231,-977 231,-922.09 418.55,-934.13 473,-927 504.12,-922.93 585.43,-931.98 614,-919 628.44,-912.44 640.8,-899.3 649.22,-888.43"/>
<polygon fill="orange" stroke="orange" points="645.26,-1609.6 655.41,-1606.57 645.58,-1602.61 645.26,-1609.6"/>
</g>
<!-- clear&#45;*tests*&#45;&gt;store&#45;*tests&#45;to&#45;process*! -->
<g id="edge31" class="edge">
<title>clear&#45;*tests*&#45;&gt;store&#45;*tests&#45;to&#45;process*!</title>
<path fill="none" stroke="orange" stroke-dasharray="5,2" d="M644.99,-1607.09C485.44,-1601.12 193,-1584.05 193,-1539 193,-1539 193,-1539 193,-869 193,-836.32 267.23,-814.4 336.97,-801.01"/>
<polygon fill="orange" stroke="orange" points="645.18,-1610.6 655.3,-1607.47 645.44,-1603.6 645.18,-1610.6"/>
</g>
<!-- load -->
<g id="node10" class="node">
<title>load</title>
<polygon fill="none" stroke="black" points="725,-1462 671,-1462 671,-1426 725,-1426 725,-1462"/>
<text text-anchor="middle" x="698" y="-1440.3" font-family="Times,serif" font-size="14.00">load</text>
</g>
<!-- ensuring&#45;runner&#45;&gt;load -->
<g id="edge6" class="edge">
<title>ensuring&#45;runner&#45;&gt;load</title>
<path fill="none" stroke="aquamarine" d="M752.4,-1519.7C742.29,-1505.82 727.96,-1486.14 716.54,-1470.46"/>
<polygon fill="aquamarine" stroke="aquamarine" points="719.26,-1468.25 710.55,-1462.23 713.6,-1472.37 719.26,-1468.25"/>
</g>
<!-- load&#45;&gt;eval -->
<g id="edge7" class="edge">
<title>load&#45;&gt;eval</title>
<path fill="none" stroke="aquamarine" d="M670.85,-1427.94C651.93,-1417.45 626.49,-1403.33 605.89,-1391.91"/>
<polygon fill="aquamarine" stroke="aquamarine" points="607.55,-1388.83 597.11,-1387.04 604.15,-1394.95 607.55,-1388.83"/>
</g>
<!-- macroexpanding (tests...) -->
<g id="node12" class="node">
<title>macroexpanding (tests...)</title>
<polygon fill="none" stroke="black" points="647.5,-1316 492.5,-1316 492.5,-1280 647.5,-1280 647.5,-1316"/>
<text text-anchor="middle" x="570" y="-1294.3" font-family="Times,serif" font-size="14.00">macroexpanding (tests...)</text>
</g>
<!-- eval&#45;&gt;macroexpanding (tests...) -->
<g id="edge10" class="edge">
<title>eval&#45;&gt;macroexpanding (tests...)</title>
<path fill="none" stroke="aquamarine" d="M564.12,-1352.81C563.28,-1344.79 563.05,-1335.05 563.42,-1326.07"/>
<polygon fill="aquamarine" stroke="aquamarine" points="566.92,-1326.25 564.14,-1316.03 559.94,-1325.75 566.92,-1326.25"/>
</g>
<!-- eval&#45;&gt;macroexpanding (tests...) -->
<g id="edge11" class="edge">
<title>eval&#45;&gt;macroexpanding (tests...)</title>
<path fill="none" stroke="lightpink" d="M575.88,-1352.81C576.72,-1344.79 576.95,-1335.05 576.58,-1326.07"/>
<polygon fill="lightpink" stroke="lightpink" points="580.06,-1325.75 575.86,-1316.03 573.08,-1326.25 580.06,-1325.75"/>
</g>
<!-- (load&#45;tests?) -->
<g id="node13" class="node">
<title>(load&#45;tests?)</title>
<polygon fill="none" stroke="black" points="611.5,-1243 528.5,-1243 528.5,-1207 611.5,-1207 611.5,-1243"/>
<text text-anchor="middle" x="570" y="-1221.3" font-family="Times,serif" font-size="14.00">(load&#45;tests?)</text>
</g>
<!-- macroexpanding (tests...)&#45;&gt;(load&#45;tests?) -->
<g id="edge12" class="edge">
<title>macroexpanding (tests...)&#45;&gt;(load&#45;tests?)</title>
<path fill="none" stroke="aquamarine" d="M564.12,-1279.81C563.28,-1271.79 563.05,-1262.05 563.42,-1253.07"/>
<polygon fill="aquamarine" stroke="aquamarine" points="566.92,-1253.25 564.14,-1243.03 559.94,-1252.75 566.92,-1253.25"/>
</g>
<!-- macroexpanding (tests...)&#45;&gt;(load&#45;tests?) -->
<g id="edge13" class="edge">
<title>macroexpanding (tests...)&#45;&gt;(load&#45;tests?)</title>
<path fill="none" stroke="lightpink" d="M575.88,-1279.81C576.72,-1271.79 576.95,-1262.05 576.58,-1253.07"/>
<polygon fill="lightpink" stroke="lightpink" points="580.06,-1252.75 575.86,-1243.03 573.08,-1253.25 580.06,-1252.75"/>
</g>
<!-- macroexpands to ... -->
<g id="node14" class="node">
<title>macroexpands to ...</title>
<polygon fill="none" stroke="black" points="725.5,-1156 600.5,-1156 600.5,-1120 725.5,-1120 725.5,-1156"/>
<text text-anchor="middle" x="663" y="-1134.3" font-family="Times,serif" font-size="14.00">macroexpands to ...</text>
</g>
<!-- (load&#45;tests?)&#45;&gt;macroexpands to ... -->
<g id="edge14" class="edge">
<title>(load&#45;tests?)&#45;&gt;macroexpands to ...</title>
<path fill="none" stroke="aquamarine" d="M585.42,-1206.73C594.56,-1196.81 606.56,-1184.31 618,-1174 622.23,-1170.19 626.83,-1166.33 631.42,-1162.62"/>
<polygon fill="aquamarine" stroke="aquamarine" points="633.9,-1165.12 639.59,-1156.18 629.57,-1159.63 633.9,-1165.12"/>
<text text-anchor="middle" x="629" y="-1177.8" font-family="Times,serif" font-size="14.00">true</text>
</g>
<!-- (load&#45;tests?)&#45;&gt;macroexpands to ... -->
<g id="edge15" class="edge">
<title>(load&#45;tests?)&#45;&gt;macroexpands to ...</title>
<path fill="none" stroke="lightpink" d="M611.59,-1208.94C621.8,-1203.79 632.06,-1197.2 640,-1189 646.24,-1182.56 650.99,-1174.12 654.51,-1166.01"/>
<polygon fill="lightpink" stroke="lightpink" points="657.87,-1167.04 658.21,-1156.45 651.34,-1164.51 657.87,-1167.04"/>
<text text-anchor="middle" x="661" y="-1177.8" font-family="Times,serif" font-size="14.00">true</text>
</g>
<!-- macroexpands to nil -->
<g id="node15" class="node">
<title>macroexpands to nil</title>
<polygon fill="none" stroke="black" points="582,-1156 454,-1156 454,-1120 582,-1120 582,-1156"/>
<text text-anchor="middle" x="518" y="-1134.3" font-family="Times,serif" font-size="14.00">macroexpands to nil</text>
</g>
<!-- (load&#45;tests?)&#45;&gt;macroexpands to nil -->
<g id="edge16" class="edge">
<title>(load&#45;tests?)&#45;&gt;macroexpands to nil</title>
<path fill="none" stroke="aquamarine" d="M536.33,-1206.9C529.84,-1202.02 523.86,-1196.07 520,-1189 516.28,-1182.19 514.91,-1174.04 514.71,-1166.31"/>
<polygon fill="aquamarine" stroke="aquamarine" points="518.21,-1166.32 515.04,-1156.21 511.21,-1166.09 518.21,-1166.32"/>
<text text-anchor="middle" x="533" y="-1177.8" font-family="Times,serif" font-size="14.00">false</text>
</g>
<!-- (load&#45;tests?)&#45;&gt;macroexpands to nil -->
<g id="edge17" class="edge">
<title>(load&#45;tests?)&#45;&gt;macroexpands to nil</title>
<path fill="none" stroke="lightpink" d="M562.92,-1206.83C558.56,-1196.93 552.56,-1184.43 546,-1174 543.98,-1170.78 541.7,-1167.51 539.35,-1164.34"/>
<polygon fill="lightpink" stroke="lightpink" points="541.96,-1161.98 533.06,-1156.23 536.43,-1166.27 541.96,-1161.98"/>
<text text-anchor="middle" x="567" y="-1177.8" font-family="Times,serif" font-size="14.00">false</text>
</g>
<!-- macroexpands to ...&#45;&gt;currently&#45;loading? -->
<g id="edge18" class="edge">
<title>macroexpands to ...&#45;&gt;currently&#45;loading?</title>
<path fill="none" stroke="aquamarine" d="M657.12,-1119.81C656.28,-1111.79 656.05,-1102.05 656.42,-1093.07"/>
<polygon fill="aquamarine" stroke="aquamarine" points="659.92,-1093.25 657.14,-1083.03 652.94,-1092.75 659.92,-1093.25"/>
</g>
<!-- macroexpands to ...&#45;&gt;currently&#45;loading? -->
<g id="edge19" class="edge">
<title>macroexpands to ...&#45;&gt;currently&#45;loading?</title>
<path fill="none" stroke="lightpink" d="M668.88,-1119.81C669.72,-1111.79 669.95,-1102.05 669.58,-1093.07"/>
<polygon fill="lightpink" stroke="lightpink" points="673.06,-1092.75 668.86,-1083.03 666.08,-1093.25 673.06,-1092.75"/>
</g>
<!-- (process&#45;tests&#45;on&#45;load&#45;now!) -->
<g id="node20" class="node">
<title>(process&#45;tests&#45;on&#45;load&#45;now!)</title>
<polygon fill="none" stroke="black" points="543.5,-888 370.5,-888 370.5,-852 543.5,-852 543.5,-888"/>
<text text-anchor="middle" x="457" y="-866.3" font-family="Times,serif" font-size="14.00">(process&#45;tests&#45;on&#45;load&#45;now!)</text>
</g>
<!-- (process&#45;after&#45;load!)&#45;&gt;(process&#45;tests&#45;on&#45;load&#45;now!) -->
<g id="edge24" class="edge">
<title>(process&#45;after&#45;load!)&#45;&gt;(process&#45;tests&#45;on&#45;load&#45;now!)</title>
<path fill="none" stroke="aquamarine" d="M492.02,-959.81C488.95,-954.22 485.67,-947.92 483,-942 476.54,-927.7 470.45,-911.27 465.78,-897.83"/>
<polygon fill="aquamarine" stroke="aquamarine" points="469.05,-896.55 462.51,-888.21 462.42,-898.8 469.05,-896.55"/>
<text text-anchor="middle" x="566.5" y="-930.8" font-family="Times,serif" font-size="14.00">... and so on until load has run</text>
</g>
<!-- run&#45;block! -->
<g id="node18" class="node">
<title>run&#45;block!</title>
<polygon fill="none" stroke="black" points="851,-801 633,-801 633,-765 851,-765 851,-801"/>
<text text-anchor="middle" x="742" y="-779.3" font-family="Times,serif" font-size="14.00">(run&#45;execute&#45;report! :block ns block)</text>
</g>
<!-- (when...)&#45;&gt;run&#45;block! -->
<g id="edge23" class="edge">
<title>(when...)&#45;&gt;run&#45;block!</title>
<path fill="none" stroke="lightpink" d="M696.21,-970.86C712.64,-965.97 731.03,-957.29 741,-942 766.68,-902.6 758.41,-845.11 750.15,-811.43"/>
<polygon fill="lightpink" stroke="lightpink" points="753.44,-810.17 747.51,-801.38 746.67,-811.95 753.44,-810.17"/>
<text text-anchor="middle" x="797" y="-866.3" font-family="Times,serif" font-size="14.00">(:run (config))</text>
</g>
<!-- (when...)&#45;&gt;(store&#45;tests!) -->
<g id="edge22" class="edge">
<title>(when...)&#45;&gt;(store&#45;tests!)</title>
<path fill="none" stroke="lightpink" d="M658.23,-959.69C656.91,-954.09 655.66,-947.82 655,-942 653.37,-927.55 654.5,-911.4 656.2,-898.15"/>
<polygon fill="lightpink" stroke="lightpink" points="659.67,-898.64 657.65,-888.24 652.74,-897.63 659.67,-898.64"/>
<text text-anchor="middle" x="698" y="-930.8" font-family="Times,serif" font-size="14.00">(:store (config))</text>
</g>
<!-- suite -->
<g id="node23" class="node">
<title>suite</title>
<polygon fill="none" stroke="black" points="545,-707 491,-707 491,-671 545,-671 545,-707"/>
<text text-anchor="middle" x="518" y="-685.3" font-family="Times,serif" font-size="14.00">suite</text>
</g>
<!-- run&#45;block!&#45;&gt;suite -->
<g id="edge33" class="edge">
<title>run&#45;block!&#45;&gt;suite</title>
<path fill="none" stroke="black" d="M700.39,-764.91C658.55,-747.72 594.66,-721.48 554.66,-705.06"/>
<polygon fill="black" stroke="black" points="555.86,-701.77 545.28,-701.21 553.2,-708.24 555.86,-701.77"/>
</g>
<!-- (process&#45;tests&#45;on&#45;load&#45;now!)&#45;&gt;store&#45;*tests&#45;to&#45;process*! -->
<g id="edge25" class="edge">
<title>(process&#45;tests&#45;on&#45;load&#45;now!)&#45;&gt;store&#45;*tests&#45;to&#45;process*!</title>
<path fill="none" stroke="aquamarine" d="M457,-851.8C457,-840.16 457,-824.55 457,-811.24"/>
<polygon fill="aquamarine" stroke="aquamarine" points="460.5,-811.18 457,-801.18 453.5,-811.18 460.5,-811.18"/>
<text text-anchor="middle" x="526.5" y="-822.8" font-family="Times,serif" font-size="14.00">(when (:store (config)) ...</text>
</g>
<!-- (process&#45;tests&#45;on&#45;load&#45;now!)&#45;&gt;run&#45;suite! -->
<g id="edge26" class="edge">
<title>(process&#45;tests&#45;on&#45;load&#45;now!)&#45;&gt;run&#45;suite!</title>
<path fill="none" stroke="aquamarine" d="M390.08,-852C368.62,-846.41 344.77,-840.08 323,-834 289.02,-824.51 251.35,-813.36 220.31,-804"/>
<polygon fill="aquamarine" stroke="aquamarine" points="221.07,-800.57 210.48,-801.03 219.04,-807.27 221.07,-800.57"/>
<text text-anchor="middle" x="388" y="-822.8" font-family="Times,serif" font-size="14.00">(when (:run (config)) ...</text>
</g>
<!-- run&#45;suite!&#45;&gt;suite -->
<g id="edge32" class="edge">
<title>run&#45;suite!&#45;&gt;suite</title>
<path fill="none" stroke="black" d="M222.43,-764.91C298.6,-745.61 419.85,-714.88 480.65,-699.47"/>
<polygon fill="black" stroke="black" points="481.75,-702.8 490.58,-696.95 480.03,-696.01 481.75,-702.8"/>
</g>
<!-- namespace -->
<g id="node24" class="node">
<title>namespace</title>
<polygon fill="none" stroke="black" points="556.5,-634 479.5,-634 479.5,-598 556.5,-598 556.5,-634"/>
<text text-anchor="middle" x="518" y="-612.3" font-family="Times,serif" font-size="14.00">namespace</text>
</g>
<!-- suite&#45;&gt;namespace -->
<g id="edge34" class="edge">
<title>suite&#45;&gt;namespace</title>
<path fill="none" stroke="black" d="M518,-670.81C518,-662.79 518,-653.05 518,-644.07"/>
<polygon fill="black" stroke="black" points="521.5,-644.03 518,-634.03 514.5,-644.03 521.5,-644.03"/>
</g>
<!-- block -->
<g id="node25" class="node">
<title>block</title>
<polygon fill="none" stroke="black" points="545,-561 491,-561 491,-525 545,-525 545,-561"/>
<text text-anchor="middle" x="518" y="-539.3" font-family="Times,serif" font-size="14.00">block</text>
</g>
<!-- namespace&#45;&gt;block -->
<g id="edge35" class="edge">
<title>namespace&#45;&gt;block</title>
<path fill="none" stroke="black" d="M518,-597.81C518,-589.79 518,-580.05 518,-571.07"/>
<polygon fill="black" stroke="black" points="521.5,-571.03 518,-561.03 514.5,-571.03 521.5,-571.03"/>
</g>
<!-- case -->
<g id="node26" class="node">
<title>case</title>
<polygon fill="none" stroke="black" points="545,-488 491,-488 491,-452 545,-452 545,-488"/>
<text text-anchor="middle" x="518" y="-466.3" font-family="Times,serif" font-size="14.00">case</text>
</g>
<!-- block&#45;&gt;case -->
<g id="edge36" class="edge">
<title>block&#45;&gt;case</title>
<path fill="none" stroke="black" d="M518,-524.81C518,-516.79 518,-507.05 518,-498.07"/>
<polygon fill="black" stroke="black" points="521.5,-498.03 518,-488.03 514.5,-498.03 521.5,-498.03"/>
</g>
<!-- for&#45;each&#45;executor -->
<g id="node27" class="node">
<title>for&#45;each&#45;executor</title>
<polygon fill="none" stroke="black" points="574.5,-415 461.5,-415 461.5,-379 574.5,-379 574.5,-415"/>
<text text-anchor="middle" x="518" y="-393.3" font-family="Times,serif" font-size="14.00">for&#45;each&#45;executor</text>
</g>
<!-- case&#45;&gt;for&#45;each&#45;executor -->
<g id="edge37" class="edge">
<title>case&#45;&gt;for&#45;each&#45;executor</title>
<path fill="none" stroke="black" d="M518,-451.81C518,-443.79 518,-434.05 518,-425.07"/>
<polygon fill="black" stroke="black" points="521.5,-425.03 518,-415.03 514.5,-425.03 521.5,-425.03"/>
</g>
<!-- RunnerP/run&#45;case -->
<g id="node28" class="node">
<title>RunnerP/run&#45;case</title>
<polygon fill="none" stroke="black" points="574.5,-342 461.5,-342 461.5,-306 574.5,-306 574.5,-342"/>
<text text-anchor="middle" x="518" y="-320.3" font-family="Times,serif" font-size="14.00">RunnerP/run&#45;case</text>
</g>
<!-- for&#45;each&#45;executor&#45;&gt;RunnerP/run&#45;case -->
<g id="edge38" class="edge">
<title>for&#45;each&#45;executor&#45;&gt;RunnerP/run&#45;case</title>
<path fill="none" stroke="black" d="M518,-378.81C518,-370.79 518,-361.05 518,-352.07"/>
<polygon fill="black" stroke="black" points="521.5,-352.03 518,-342.03 514.5,-352.03 521.5,-352.03"/>
</g>
<!-- ExecutorP/execute&#45;case -->
<g id="node29" class="node">
<title>ExecutorP/execute&#45;case</title>
<polygon fill="none" stroke="black" points="591,-269 445,-269 445,-233 591,-233 591,-269"/>
<text text-anchor="middle" x="518" y="-247.3" font-family="Times,serif" font-size="14.00">ExecutorP/execute&#45;case</text>
</g>
<!-- RunnerP/run&#45;case&#45;&gt;ExecutorP/execute&#45;case -->
<g id="edge39" class="edge">
<title>RunnerP/run&#45;case&#45;&gt;ExecutorP/execute&#45;case</title>
<path fill="none" stroke="black" d="M518,-305.81C518,-297.79 518,-288.05 518,-279.07"/>
<polygon fill="black" stroke="black" points="521.5,-279.03 518,-269.03 514.5,-279.03 521.5,-279.03"/>
</g>
<!-- lang? -->
<g id="node30" class="node">
<title>lang?</title>
<polygon fill="none" stroke="black" points="545,-196 491,-196 491,-160 545,-160 545,-196"/>
<text text-anchor="middle" x="518" y="-174.3" font-family="Times,serif" font-size="14.00">lang?</text>
</g>
<!-- ExecutorP/execute&#45;case&#45;&gt;lang? -->
<g id="edge40" class="edge">
<title>ExecutorP/execute&#45;case&#45;&gt;lang?</title>
<path fill="none" stroke="black" d="M518,-232.81C518,-224.79 518,-215.05 518,-206.07"/>
<polygon fill="black" stroke="black" points="521.5,-206.03 518,-196.03 514.5,-206.03 521.5,-206.03"/>
</g>
<!-- CljExecutor/execute&#45;case -->
<g id="node31" class="node">
<title>CljExecutor/execute&#45;case</title>
<polygon fill="none" stroke="black" points="507.5,-109 352.5,-109 352.5,-73 507.5,-73 507.5,-109"/>
<text text-anchor="middle" x="430" y="-87.3" font-family="Times,serif" font-size="14.00">CljExecutor/execute&#45;case</text>
</g>
<!-- lang?&#45;&gt;CljExecutor/execute&#45;case -->
<g id="edge41" class="edge">
<title>lang?&#45;&gt;CljExecutor/execute&#45;case</title>
<path fill="none" stroke="black" d="M500.19,-159.8C487.31,-147.36 469.72,-130.36 455.37,-116.5"/>
<polygon fill="black" stroke="black" points="457.41,-113.61 447.78,-109.18 452.54,-118.64 457.41,-113.61"/>
<text text-anchor="middle" x="486" y="-130.8" font-family="Times,serif" font-size="14.00">clj</text>
</g>
<!-- CljsExecutor/execute&#45;case -->
<g id="node32" class="node">
<title>CljsExecutor/execute&#45;case</title>
<polygon fill="none" stroke="black" points="686,-109 526,-109 526,-73 686,-73 686,-109"/>
<text text-anchor="middle" x="606" y="-87.3" font-family="Times,serif" font-size="14.00">CljsExecutor/execute&#45;case</text>
</g>
<!-- lang?&#45;&gt;CljsExecutor/execute&#45;case -->
<g id="edge42" class="edge">
<title>lang?&#45;&gt;CljsExecutor/execute&#45;case</title>
<path fill="none" stroke="black" d="M535.81,-159.8C548.69,-147.36 566.28,-130.36 580.63,-116.5"/>
<polygon fill="black" stroke="black" points="583.46,-118.64 588.22,-109.18 578.59,-113.61 583.46,-118.64"/>
<text text-anchor="middle" x="576.5" y="-130.8" font-family="Times,serif" font-size="14.00">cljs</text>
</g>
<!-- run&#45;test&#45;and&#45;yield&#45;report! -->
<g id="node33" class="node">
<title>run&#45;test&#45;and&#45;yield&#45;report!</title>
<polygon fill="none" stroke="black" points="507.5,-36 352.5,-36 352.5,0 507.5,0 507.5,-36"/>
<text text-anchor="middle" x="430" y="-14.3" font-family="Times,serif" font-size="14.00">run&#45;test&#45;and&#45;yield&#45;report!</text>
</g>
<!-- CljExecutor/execute&#45;case&#45;&gt;run&#45;test&#45;and&#45;yield&#45;report! -->
<g id="edge43" class="edge">
<title>CljExecutor/execute&#45;case&#45;&gt;run&#45;test&#45;and&#45;yield&#45;report!</title>
<path fill="none" stroke="black" d="M430,-72.81C430,-64.79 430,-55.05 430,-46.07"/>
<polygon fill="black" stroke="black" points="433.5,-46.03 430,-36.03 426.5,-46.03 433.5,-46.03"/>
</g>
</g>
</svg>
